<svg width="176" height="16" viewBox="0 0 176 16" fill="none" xmlns="http://www.w3.org/2000/svg">
<path d="M10.7614 12V2.752L6.64944 9.936H5.94544L1.81744 2.752V12H0.697438V0.639999H1.84944L6.28144 8.416L10.7454 0.639999H11.8814V12H10.7614ZM13.7546 9.6C13.7546 9.07733 13.9039 8.62933 14.2026 8.256C14.5012 7.872 14.9119 7.57867 15.4346 7.376C15.9679 7.16267 16.5812 7.056 17.2746 7.056C17.6799 7.056 18.1012 7.088 18.5386 7.152C18.9759 7.216 19.3652 7.312 19.7066 7.44V6.736C19.7066 6.032 19.4986 5.472 19.0826 5.056C18.6666 4.64 18.0906 4.432 17.3546 4.432C16.9066 4.432 16.4639 4.51733 16.0266 4.688C15.5999 4.848 15.1519 5.088 14.6826 5.408L14.2666 4.64C14.8106 4.26667 15.3439 3.98933 15.8666 3.808C16.3892 3.616 16.9226 3.52 17.4666 3.52C18.4906 3.52 19.3012 3.81333 19.8986 4.4C20.4959 4.98667 20.7946 5.79733 20.7946 6.832V10.688C20.7946 10.8373 20.8266 10.9493 20.8906 11.024C20.9546 11.088 21.0559 11.1253 21.1946 11.136V12C21.0772 12.0107 20.9759 12.0213 20.8906 12.032C20.8052 12.0427 20.7412 12.0427 20.6986 12.032C20.4319 12.0213 20.2292 11.936 20.0906 11.776C19.9519 11.616 19.8772 11.4453 19.8666 11.264L19.8506 10.656C19.4772 11.136 18.9919 11.5093 18.3946 11.776C17.7972 12.032 17.1892 12.16 16.5706 12.16C16.0372 12.16 15.5519 12.048 15.1146 11.824C14.6879 11.5893 14.3519 11.28 14.1066 10.896C13.8719 10.5013 13.7546 10.0693 13.7546 9.6ZM19.3386 10.24C19.4559 10.0907 19.5466 9.94667 19.6106 9.808C19.6746 9.66933 19.7066 9.54667 19.7066 9.44V8.224C19.3439 8.08533 18.9652 7.97867 18.5706 7.904C18.1866 7.82933 17.7972 7.792 17.4026 7.792C16.6239 7.792 15.9946 7.94667 15.5146 8.256C15.0346 8.56533 14.7946 8.98667 14.7946 9.52C14.7946 9.82933 14.8746 10.1227 15.0346 10.4C15.1946 10.6667 15.4292 10.8907 15.7386 11.072C16.0479 11.2427 16.4106 11.328 16.8266 11.328C17.3492 11.328 17.8346 11.2267 18.2826 11.024C18.7412 10.8213 19.0932 10.56 19.3386 10.24ZM27.3053 4.624C26.58 4.64533 25.94 4.848 25.3853 5.232C24.8413 5.616 24.4573 6.144 24.2333 6.816V12H23.1453V3.664H24.1693V5.664C24.4573 5.07733 24.836 4.60267 25.3053 4.24C25.7853 3.87733 26.292 3.67467 26.8253 3.632C26.932 3.62133 27.0226 3.616 27.0973 3.616C27.1826 3.616 27.252 3.62133 27.3053 3.632V4.624ZM32.1051 12.16C31.4971 12.16 30.9371 12.048 30.4251 11.824C29.9237 11.5893 29.4811 11.2693 29.0971 10.864C28.7237 10.4587 28.4304 9.99467 28.2171 9.472C28.0144 8.94933 27.9131 8.39467 27.9131 7.808C27.9131 7.01867 28.0891 6.29867 28.4411 5.648C28.7931 4.99733 29.2837 4.48 29.9131 4.096C30.5424 3.712 31.2677 3.52 32.0891 3.52C32.8677 3.52 33.5557 3.70133 34.1531 4.064C34.7504 4.416 35.1931 4.896 35.4811 5.504L34.4251 5.84C34.1904 5.41333 33.8597 5.08267 33.4331 4.848C33.0171 4.60267 32.5531 4.48 32.0411 4.48C31.4864 4.48 30.9797 4.624 30.5211 4.912C30.0624 5.2 29.6944 5.59467 29.4171 6.096C29.1504 6.59733 29.0171 7.168 29.0171 7.808C29.0171 8.43733 29.1557 9.008 29.4331 9.52C29.7104 10.032 30.0784 10.4427 30.5371 10.752C30.9957 11.0507 31.5024 11.2 32.0571 11.2C32.4197 11.2 32.7664 11.136 33.0971 11.008C33.4384 10.88 33.7317 10.7093 33.9771 10.496C34.2331 10.272 34.4037 10.032 34.4891 9.776L35.5611 10.096C35.4117 10.4907 35.1611 10.848 34.8091 11.168C34.4677 11.4773 34.0624 11.7227 33.5931 11.904C33.1344 12.0747 32.6384 12.16 32.1051 12.16ZM36.5983 9.6C36.5983 9.07733 36.7476 8.62933 37.0463 8.256C37.345 7.872 37.7556 7.57867 38.2783 7.376C38.8116 7.16267 39.425 7.056 40.1183 7.056C40.5236 7.056 40.945 7.088 41.3823 7.152C41.8196 7.216 42.209 7.312 42.5503 7.44V6.736C42.5503 6.032 42.3423 5.472 41.9263 5.056C41.5103 4.64 40.9343 4.432 40.1983 4.432C39.7503 4.432 39.3076 4.51733 38.8703 4.688C38.4436 4.848 37.9956 5.088 37.5263 5.408L37.1103 4.64C37.6543 4.26667 38.1876 3.98933 38.7103 3.808C39.233 3.616 39.7663 3.52 40.3103 3.52C41.3343 3.52 42.145 3.81333 42.7423 4.4C43.3396 4.98667 43.6383 5.79733 43.6383 6.832V10.688C43.6383 10.8373 43.6703 10.9493 43.7343 11.024C43.7983 11.088 43.8996 11.1253 44.0383 11.136V12C43.921 12.0107 43.8196 12.0213 43.7343 12.032C43.649 12.0427 43.585 12.0427 43.5423 12.032C43.2756 12.0213 43.073 11.936 42.9343 11.776C42.7956 11.616 42.721 11.4453 42.7103 11.264L42.6943 10.656C42.321 11.136 41.8356 11.5093 41.2383 11.776C40.641 12.032 40.033 12.16 39.4143 12.16C38.881 12.16 38.3956 12.048 37.9583 11.824C37.5316 11.5893 37.1956 11.28 36.9503 10.896C36.7156 10.5013 36.5983 10.0693 36.5983 9.6ZM42.1823 10.24C42.2996 10.0907 42.3903 9.94667 42.4543 9.808C42.5183 9.66933 42.5503 9.54667 42.5503 9.44V8.224C42.1876 8.08533 41.809 7.97867 41.4143 7.904C41.0303 7.82933 40.641 7.792 40.2463 7.792C39.4676 7.792 38.8383 7.94667 38.3583 8.256C37.8783 8.56533 37.6383 8.98667 37.6383 9.52C37.6383 9.82933 37.7183 10.1227 37.8783 10.4C38.0383 10.6667 38.273 10.8907 38.5823 11.072C38.8916 11.2427 39.2543 11.328 39.6703 11.328C40.193 11.328 40.6783 11.2267 41.1263 11.024C41.585 10.8213 41.937 10.56 42.1823 10.24ZM54.3232 12.16C53.6299 12.16 53.0059 11.9787 52.4512 11.616C51.9072 11.2533 51.4752 10.8053 51.1552 10.272V15.408H50.0672V3.664H51.0432V5.28C51.3739 4.75733 51.8165 4.336 52.3712 4.016C52.9259 3.68533 53.5179 3.52 54.1472 3.52C54.7232 3.52 55.2512 3.64267 55.7312 3.888C56.2112 4.12267 56.6272 4.44267 56.9792 4.848C57.3312 5.25333 57.6032 5.71733 57.7952 6.24C57.9979 6.752 58.0992 7.28533 58.0992 7.84C58.0992 8.61867 57.9392 9.33867 57.6192 10C57.3099 10.6507 56.8725 11.1733 56.3072 11.568C55.7419 11.9627 55.0805 12.16 54.3232 12.16ZM54.0192 11.2C54.4779 11.2 54.8885 11.1093 55.2512 10.928C55.6139 10.736 55.9232 10.48 56.1792 10.16C56.4459 9.84 56.6485 9.48267 56.7872 9.088C56.9259 8.68267 56.9952 8.26667 56.9952 7.84C56.9952 7.392 56.9152 6.96533 56.7552 6.56C56.6059 6.15467 56.3872 5.79733 56.0992 5.488C55.8112 5.17867 55.4805 4.93333 55.1072 4.752C54.7339 4.57067 54.3285 4.48 53.8912 4.48C53.6139 4.48 53.3259 4.53333 53.0272 4.64C52.7285 4.74667 52.4405 4.90133 52.1632 5.104C51.8965 5.296 51.6725 5.51467 51.4912 5.76C51.3099 6.00533 51.1979 6.26667 51.1552 6.544V9.104C51.3259 9.49867 51.5552 9.856 51.8432 10.176C52.1312 10.4853 52.4619 10.736 52.8352 10.928C53.2192 11.1093 53.6139 11.2 54.0192 11.2ZM59.2702 9.6C59.2702 9.07733 59.4195 8.62933 59.7182 8.256C60.0169 7.872 60.4275 7.57867 60.9502 7.376C61.4835 7.16267 62.0969 7.056 62.7902 7.056C63.1955 7.056 63.6169 7.088 64.0542 7.152C64.4915 7.216 64.8809 7.312 65.2222 7.44V6.736C65.2222 6.032 65.0142 5.472 64.5982 5.056C64.1822 4.64 63.6062 4.432 62.8702 4.432C62.4222 4.432 61.9795 4.51733 61.5422 4.688C61.1155 4.848 60.6675 5.088 60.1982 5.408L59.7822 4.64C60.3262 4.26667 60.8595 3.98933 61.3822 3.808C61.9049 3.616 62.4382 3.52 62.9822 3.52C64.0062 3.52 64.8169 3.81333 65.4142 4.4C66.0115 4.98667 66.3102 5.79733 66.3102 6.832V10.688C66.3102 10.8373 66.3422 10.9493 66.4062 11.024C66.4702 11.088 66.5715 11.1253 66.7102 11.136V12C66.5929 12.0107 66.4915 12.0213 66.4062 12.032C66.3209 12.0427 66.2569 12.0427 66.2142 12.032C65.9475 12.0213 65.7449 11.936 65.6062 11.776C65.4675 11.616 65.3929 11.4453 65.3822 11.264L65.3662 10.656C64.9929 11.136 64.5075 11.5093 63.9102 11.776C63.3129 12.032 62.7049 12.16 62.0862 12.16C61.5529 12.16 61.0675 12.048 60.6302 11.824C60.2035 11.5893 59.8675 11.28 59.6222 10.896C59.3875 10.5013 59.2702 10.0693 59.2702 9.6ZM64.8542 10.24C64.9715 10.0907 65.0622 9.94667 65.1262 9.808C65.1902 9.66933 65.2222 9.54667 65.2222 9.44V8.224C64.8595 8.08533 64.4809 7.97867 64.0862 7.904C63.7022 7.82933 63.3129 7.792 62.9182 7.792C62.1395 7.792 61.5102 7.94667 61.0302 8.256C60.5502 8.56533 60.3102 8.98667 60.3102 9.52C60.3102 9.82933 60.3902 10.1227 60.5502 10.4C60.7102 10.6667 60.9449 10.8907 61.2542 11.072C61.5635 11.2427 61.9262 11.328 62.3422 11.328C62.8649 11.328 63.3502 11.2267 63.7982 11.024C64.2569 10.8213 64.6089 10.56 64.8542 10.24ZM63.3342 2.08L62.6142 1.808L63.5582 0.32H64.7102L63.3342 2.08ZM72.0049 12.112C71.4396 12.112 70.9169 11.9947 70.4369 11.76C69.9569 11.5253 69.5409 11.2107 69.1889 10.816C68.8476 10.4107 68.5809 9.952 68.3889 9.44C68.1969 8.928 68.1009 8.4 68.1009 7.856C68.1009 7.26933 68.1916 6.72 68.3729 6.208C68.5649 5.68533 68.8316 5.22133 69.1729 4.816C69.5249 4.41067 69.9356 4.096 70.4049 3.872C70.8743 3.63733 71.3969 3.52 71.9729 3.52C72.6876 3.52 73.3063 3.70133 73.8289 4.064C74.3623 4.42667 74.8103 4.87467 75.1729 5.408V3.664H76.1489V12.032C76.1489 12.8 75.9623 13.4453 75.5889 13.968C75.2263 14.5013 74.7303 14.9013 74.1009 15.168C73.4823 15.4347 72.8049 15.568 72.0689 15.568C71.1196 15.568 70.3516 15.3973 69.7649 15.056C69.1783 14.7147 68.6983 14.256 68.3249 13.68L68.9969 13.152C69.3276 13.6747 69.7649 14.064 70.3089 14.32C70.8636 14.576 71.4503 14.704 72.0689 14.704C72.6129 14.704 73.1089 14.6027 73.5569 14.4C74.0156 14.208 74.3783 13.9147 74.6449 13.52C74.9223 13.1253 75.0609 12.6293 75.0609 12.032V10.384C74.7409 10.9067 74.3036 11.328 73.7489 11.648C73.1943 11.9573 72.6129 12.112 72.0049 12.112ZM72.3089 11.2C72.6396 11.2 72.9543 11.1413 73.2529 11.024C73.5623 10.9067 73.8449 10.752 74.1009 10.56C74.3569 10.3573 74.5703 10.1333 74.7409 9.888C74.9116 9.64267 75.0183 9.392 75.0609 9.136V6.56C74.9009 6.15467 74.6716 5.79733 74.3729 5.488C74.0743 5.168 73.7329 4.92267 73.3489 4.752C72.9756 4.57067 72.5863 4.48 72.1809 4.48C71.7116 4.48 71.2903 4.58133 70.9169 4.784C70.5543 4.976 70.2449 5.23733 69.9889 5.568C69.7436 5.888 69.5516 6.25067 69.4129 6.656C69.2743 7.06133 69.2049 7.46667 69.2049 7.872C69.2049 8.32 69.2849 8.74667 69.4449 9.152C69.6049 9.54667 69.8236 9.904 70.1009 10.224C70.3889 10.5333 70.7196 10.7733 71.0929 10.944C71.4769 11.1147 71.8823 11.2 72.3089 11.2ZM78.5516 12V3.664H79.6396V12H78.5516ZM78.5516 1.92V0.32H79.6396V1.92H78.5516ZM89.0439 12H87.9559V7.344C87.9559 6.36267 87.8119 5.648 87.5239 5.2C87.2359 4.74133 86.7826 4.512 86.1639 4.512C85.7373 4.512 85.3159 4.61867 84.8999 4.832C84.4839 5.03467 84.1159 5.31733 83.7959 5.68C83.4866 6.032 83.2626 6.43733 83.1239 6.896V12H82.0359V3.664H83.0279V5.552C83.2519 5.14667 83.5453 4.79467 83.9079 4.496C84.2706 4.18667 84.6813 3.94667 85.1399 3.776C85.5986 3.60533 86.0733 3.52 86.5639 3.52C87.0226 3.52 87.4119 3.60533 87.7319 3.776C88.0519 3.94667 88.3079 4.192 88.4999 4.512C88.6919 4.82133 88.8306 5.2 88.9159 5.648C89.0013 6.08533 89.0439 6.576 89.0439 7.12V12ZM90.6921 9.6C90.6921 9.07733 90.8414 8.62933 91.1401 8.256C91.4387 7.872 91.8494 7.57867 92.3721 7.376C92.9054 7.16267 93.5187 7.056 94.2121 7.056C94.6174 7.056 95.0387 7.088 95.4761 7.152C95.9134 7.216 96.3027 7.312 96.6441 7.44V6.736C96.6441 6.032 96.4361 5.472 96.0201 5.056C95.6041 4.64 95.0281 4.432 94.2921 4.432C93.8441 4.432 93.4014 4.51733 92.9641 4.688C92.5374 4.848 92.0894 5.088 91.6201 5.408L91.2041 4.64C91.7481 4.26667 92.2814 3.98933 92.8041 3.808C93.3267 3.616 93.8601 3.52 94.4041 3.52C95.4281 3.52 96.2387 3.81333 96.8361 4.4C97.4334 4.98667 97.7321 5.79733 97.7321 6.832V10.688C97.7321 10.8373 97.7641 10.9493 97.8281 11.024C97.8921 11.088 97.9934 11.1253 98.1321 11.136V12C98.0147 12.0107 97.9134 12.0213 97.8281 12.032C97.7427 12.0427 97.6787 12.0427 97.6361 12.032C97.3694 12.0213 97.1667 11.936 97.0281 11.776C96.8894 11.616 96.8147 11.4453 96.8041 11.264L96.7881 10.656C96.4147 11.136 95.9294 11.5093 95.3321 11.776C94.7347 12.032 94.1267 12.16 93.5081 12.16C92.9747 12.16 92.4894 12.048 92.0521 11.824C91.6254 11.5893 91.2894 11.28 91.0441 10.896C90.8094 10.5013 90.6921 10.0693 90.6921 9.6ZM96.2761 10.24C96.3934 10.0907 96.4841 9.94667 96.5481 9.808C96.6121 9.66933 96.6441 9.54667 96.6441 9.44V8.224C96.2814 8.08533 95.9027 7.97867 95.5081 7.904C95.1241 7.82933 94.7347 7.792 94.3401 7.792C93.5614 7.792 92.9321 7.94667 92.4521 8.256C91.9721 8.56533 91.7321 8.98667 91.7321 9.52C91.7321 9.82933 91.8121 10.1227 91.9721 10.4C92.1321 10.6667 92.3667 10.8907 92.6761 11.072C92.9854 11.2427 93.3481 11.328 93.7641 11.328C94.2867 11.328 94.7721 11.2267 95.2201 11.024C95.6787 10.8213 96.0307 10.56 96.2761 10.24ZM102.819 12.16C102.136 12.16 101.501 12.048 100.915 11.824C100.328 11.6 99.8215 11.2587 99.3948 10.8L99.8428 10.032C100.312 10.4693 100.781 10.7893 101.251 10.992C101.731 11.184 102.237 11.28 102.771 11.28C103.421 11.28 103.949 11.152 104.355 10.896C104.76 10.6293 104.963 10.2507 104.963 9.76C104.963 9.42933 104.861 9.17867 104.659 9.008C104.467 8.82667 104.184 8.68267 103.811 8.576C103.448 8.45867 103.011 8.336 102.499 8.208C101.923 8.048 101.437 7.88267 101.043 7.712C100.659 7.53067 100.365 7.30667 100.163 7.04C99.9708 6.76267 99.8748 6.40533 99.8748 5.968C99.8748 5.424 100.008 4.976 100.275 4.624C100.552 4.26133 100.925 3.98933 101.395 3.808C101.875 3.616 102.408 3.52 102.995 3.52C103.635 3.52 104.2 3.62133 104.691 3.824C105.181 4.02667 105.581 4.30933 105.891 4.672L105.363 5.408C105.064 5.06667 104.707 4.816 104.291 4.656C103.885 4.48533 103.432 4.4 102.931 4.4C102.589 4.4 102.264 4.448 101.955 4.544C101.645 4.62933 101.389 4.77867 101.187 4.992C100.995 5.19467 100.899 5.47733 100.899 5.84C100.899 6.13867 100.973 6.37333 101.123 6.544C101.272 6.704 101.496 6.84267 101.795 6.96C102.093 7.06667 102.461 7.184 102.899 7.312C103.528 7.48267 104.077 7.65867 104.547 7.84C105.016 8.01067 105.379 8.23467 105.635 8.512C105.891 8.78933 106.019 9.17867 106.019 9.68C106.019 10.4587 105.725 11.0667 105.139 11.504C104.552 11.9413 103.779 12.16 102.819 12.16ZM115.895 11.6C115.81 11.632 115.677 11.6907 115.495 11.776C115.314 11.8613 115.095 11.936 114.839 12C114.583 12.064 114.306 12.096 114.007 12.096C113.698 12.096 113.405 12.0373 113.127 11.92C112.861 11.8027 112.647 11.6267 112.487 11.392C112.327 11.1467 112.247 10.848 112.247 10.496V4.528H111.095V3.664H112.247V0.848H113.335V3.664H115.255V4.528H113.335V10.192C113.357 10.4907 113.463 10.7147 113.655 10.864C113.858 11.0133 114.087 11.088 114.343 11.088C114.642 11.088 114.914 11.04 115.159 10.944C115.405 10.8373 115.554 10.7627 115.607 10.72L115.895 11.6ZM120.714 12.16C120.117 12.16 119.562 12.048 119.05 11.824C118.538 11.5893 118.095 11.2747 117.722 10.88C117.349 10.4747 117.055 10.0107 116.842 9.488C116.639 8.96533 116.538 8.40533 116.538 7.808C116.538 7.02933 116.714 6.31467 117.066 5.664C117.429 5.01333 117.925 4.496 118.554 4.112C119.183 3.71733 119.898 3.52 120.698 3.52C121.519 3.52 122.234 3.71733 122.842 4.112C123.461 4.50667 123.946 5.02933 124.298 5.68C124.65 6.32 124.826 7.024 124.826 7.792C124.826 7.87733 124.826 7.96267 124.826 8.048C124.826 8.12267 124.821 8.18133 124.81 8.224H117.674C117.727 8.82133 117.893 9.35467 118.17 9.824C118.458 10.2827 118.826 10.6507 119.274 10.928C119.733 11.1947 120.229 11.328 120.762 11.328C121.306 11.328 121.818 11.1893 122.298 10.912C122.789 10.6347 123.13 10.272 123.322 9.824L124.266 10.08C124.095 10.4747 123.834 10.832 123.482 11.152C123.13 11.472 122.714 11.7227 122.234 11.904C121.765 12.0747 121.258 12.16 120.714 12.16ZM117.642 7.44H123.802C123.759 6.832 123.594 6.29867 123.306 5.84C123.029 5.38133 122.661 5.024 122.202 4.768C121.754 4.50133 121.258 4.368 120.714 4.368C120.17 4.368 119.674 4.50133 119.226 4.768C118.778 5.024 118.41 5.38667 118.122 5.856C117.845 6.31467 117.685 6.84267 117.642 7.44ZM138.905 12H137.817V7.344C137.817 6.37333 137.662 5.65867 137.353 5.2C137.043 4.74133 136.585 4.512 135.977 4.512C135.347 4.512 134.782 4.736 134.281 5.184C133.79 5.632 133.443 6.208 133.241 6.912V12H132.153V7.344C132.153 6.36267 132.003 5.648 131.705 5.2C131.406 4.74133 130.947 4.512 130.329 4.512C129.71 4.512 129.15 4.73067 128.649 5.168C128.147 5.60533 127.795 6.18133 127.593 6.896V12H126.505V3.664H127.497V5.552C127.849 4.90133 128.297 4.4 128.841 4.048C129.395 3.696 130.009 3.52 130.681 3.52C131.374 3.52 131.934 3.71733 132.361 4.112C132.787 4.50667 133.049 5.024 133.145 5.664C133.529 4.96 133.987 4.42667 134.521 4.064C135.065 3.70133 135.678 3.52 136.361 3.52C136.83 3.52 137.225 3.60533 137.545 3.776C137.875 3.94667 138.137 4.192 138.329 4.512C138.531 4.82133 138.675 5.2 138.761 5.648C138.857 6.08533 138.905 6.576 138.905 7.12V12ZM140.536 9.6C140.536 9.07733 140.685 8.62933 140.984 8.256C141.282 7.872 141.693 7.57867 142.216 7.376C142.749 7.16267 143.362 7.056 144.056 7.056C144.461 7.056 144.882 7.088 145.32 7.152C145.757 7.216 146.146 7.312 146.488 7.44V6.736C146.488 6.032 146.28 5.472 145.864 5.056C145.448 4.64 144.872 4.432 144.136 4.432C143.688 4.432 143.245 4.51733 142.808 4.688C142.381 4.848 141.933 5.088 141.464 5.408L141.048 4.64C141.592 4.26667 142.125 3.98933 142.648 3.808C143.17 3.616 143.704 3.52 144.248 3.52C145.272 3.52 146.082 3.81333 146.68 4.4C147.277 4.98667 147.576 5.79733 147.576 6.832V10.688C147.576 10.8373 147.608 10.9493 147.672 11.024C147.736 11.088 147.837 11.1253 147.976 11.136V12C147.858 12.0107 147.757 12.0213 147.672 12.032C147.586 12.0427 147.522 12.0427 147.48 12.032C147.213 12.0213 147.01 11.936 146.872 11.776C146.733 11.616 146.658 11.4453 146.648 11.264L146.632 10.656C146.258 11.136 145.773 11.5093 145.176 11.776C144.578 12.032 143.97 12.16 143.352 12.16C142.818 12.16 142.333 12.048 141.896 11.824C141.469 11.5893 141.133 11.28 140.888 10.896C140.653 10.5013 140.536 10.0693 140.536 9.6ZM146.12 10.24C146.237 10.0907 146.328 9.94667 146.392 9.808C146.456 9.66933 146.488 9.54667 146.488 9.44V8.224C146.125 8.08533 145.746 7.97867 145.352 7.904C144.968 7.82933 144.578 7.792 144.184 7.792C143.405 7.792 142.776 7.94667 142.296 8.256C141.816 8.56533 141.576 8.98667 141.576 9.52C141.576 9.82933 141.656 10.1227 141.816 10.4C141.976 10.6667 142.21 10.8907 142.52 11.072C142.829 11.2427 143.192 11.328 143.608 11.328C144.13 11.328 144.616 11.2267 145.064 11.024C145.522 10.8213 145.874 10.56 146.12 10.24ZM144.6 2.08L143.88 1.808L144.824 0.32H145.976L144.6 2.08ZM153.864 11.6C153.779 11.632 153.645 11.6907 153.464 11.776C153.283 11.8613 153.064 11.936 152.808 12C152.552 12.064 152.275 12.096 151.976 12.096C151.667 12.096 151.373 12.0373 151.096 11.92C150.829 11.8027 150.616 11.6267 150.456 11.392C150.296 11.1467 150.216 10.848 150.216 10.496V4.528H149.064V3.664H150.216V0.848H151.304V3.664H153.224V4.528H151.304V10.192C151.325 10.4907 151.432 10.7147 151.624 10.864C151.827 11.0133 152.056 11.088 152.312 11.088C152.611 11.088 152.883 11.04 153.128 10.944C153.373 10.8373 153.523 10.7627 153.576 10.72L153.864 11.6ZM155.223 12V3.664H156.311V12H155.223ZM155.223 1.92V0.32H156.311V1.92H155.223ZM162.324 12.16C161.716 12.16 161.156 12.048 160.644 11.824C160.142 11.5893 159.7 11.2693 159.316 10.864C158.942 10.4587 158.649 9.99467 158.436 9.472C158.233 8.94933 158.132 8.39467 158.132 7.808C158.132 7.01867 158.308 6.29867 158.66 5.648C159.012 4.99733 159.502 4.48 160.132 4.096C160.761 3.712 161.486 3.52 162.308 3.52C163.086 3.52 163.774 3.70133 164.372 4.064C164.969 4.416 165.412 4.896 165.7 5.504L164.644 5.84C164.409 5.41333 164.078 5.08267 163.652 4.848C163.236 4.60267 162.772 4.48 162.26 4.48C161.705 4.48 161.198 4.624 160.74 4.912C160.281 5.2 159.913 5.59467 159.636 6.096C159.369 6.59733 159.236 7.168 159.236 7.808C159.236 8.43733 159.374 9.008 159.652 9.52C159.929 10.032 160.297 10.4427 160.756 10.752C161.214 11.0507 161.721 11.2 162.276 11.2C162.638 11.2 162.985 11.136 163.316 11.008C163.657 10.88 163.95 10.7093 164.196 10.496C164.452 10.272 164.622 10.032 164.708 9.776L165.78 10.096C165.63 10.4907 165.38 10.848 165.028 11.168C164.686 11.4773 164.281 11.7227 163.812 11.904C163.353 12.0747 162.857 12.16 162.324 12.16ZM170.963 12.16C170.366 12.16 169.811 12.048 169.299 11.824C168.798 11.5893 168.36 11.2747 167.987 10.88C167.624 10.4747 167.342 10.016 167.139 9.504C166.936 8.98133 166.835 8.432 166.835 7.856C166.835 7.25867 166.936 6.704 167.139 6.192C167.342 5.66933 167.63 5.21067 168.003 4.816C168.376 4.41067 168.814 4.096 169.315 3.872C169.827 3.63733 170.382 3.52 170.979 3.52C171.576 3.52 172.126 3.63733 172.627 3.872C173.128 4.096 173.566 4.41067 173.939 4.816C174.312 5.21067 174.6 5.66933 174.803 6.192C175.006 6.704 175.107 7.25867 175.107 7.856C175.107 8.432 175.006 8.98133 174.803 9.504C174.6 10.016 174.312 10.4747 173.939 10.88C173.576 11.2747 173.139 11.5893 172.627 11.824C172.126 12.048 171.571 12.16 170.963 12.16ZM167.939 7.872C167.939 8.49067 168.072 9.056 168.339 9.568C168.616 10.0693 168.984 10.4693 169.443 10.768C169.902 11.056 170.408 11.2 170.963 11.2C171.518 11.2 172.024 11.0507 172.483 10.752C172.942 10.4533 173.31 10.048 173.587 9.536C173.864 9.01333 174.003 8.448 174.003 7.84C174.003 7.22133 173.864 6.656 173.587 6.144C173.31 5.632 172.942 5.22667 172.483 4.928C172.024 4.62933 171.518 4.48 170.963 4.48C170.408 4.48 169.902 4.63467 169.443 4.944C168.995 5.25333 168.632 5.664 168.355 6.176C168.078 6.67733 167.939 7.24267 167.939 7.872Z" fill="#F8FBFB"/>
</svg>
